# xmcd
#
# Track frame offsets: 
#        150
#        19506
#        37842
#        53223
#        68908
#        87785
#        113949
#        129909
#        146085
#        169825
#        191306
#        214181
#        230975
#        249932
#        279583
#        298374
#        314678
#        336481
#
# Disc length: 4771 seconds
#
# Revision: 0
# Processed by: cddbd v1.5.2PL0 Copyright (c) Steve Scherf et al.
# Submitted via: ExactAudioCopy v0.95b3
#
DISCID=1412a112
DTITLE=Whitesnake  - 30th Anniversary Collection - Disc 2
DYEAR=1900
DGENRE=
TTITLE0=Fool For Your Loving
TTITLE1=Don't Break My Heart Again
TTITLE2=Hit An' Run
TTITLE3=The Time Is Right For Love
TTITLE4=Love Ain't No Stranger
TTITLE5=Too Many Tears (Performed By David Coverdale and Whitesnake)
TTITLE6=Pride And Joy (Performed By Coverdale,Page)
TTITLE7=Victim Of Love
TTITLE8=Judgement Day
TTITLE9=Is This Love
TTITLE10=Take A Look At Yourself (Performed By Coverdale,Page)
TTITLE11=Straight For The Heart
TTITLE12=Now You're Gone (US Remix)
TTITLE13=Looking For Love
TTITLE14=Sailing Ships (Live)
TTITLE15=Soldier Of Fortune (Live)
TTITLE16=Walking In The Shadow Of The Blues (Live)
TTITLE17=Ready An' Willing (Live)
EXTD=
EXTT0=
EXTT1=
EXTT2=
EXTT3=
EXTT4=
EXTT5=
EXTT6=
EXTT7=
EXTT8=
EXTT9=
EXTT10=
EXTT11=
EXTT12=
EXTT13=
EXTT14=
EXTT15=
EXTT16=
EXTT17=
PLAYORDER=
